<svg width="26" height="26" viewBox="0 0 26 26" fill="none" xmlns="http://www.w3.org/2000/svg">
<path d="M21.6553 13C21.6553 12.6986 21.5549 12.4475 21.354 12.2466L19.8306 10.7232L13.7703 4.66291C13.5694 4.46202 13.3183 4.36157 13.017 4.36157C12.7156 4.36157 12.4645 4.46202 12.2636 4.66291L10.7402 6.18635C10.5393 6.38724 10.4388 6.63836 10.4388 6.9397C10.4388 7.24104 10.5393 7.49215 10.7402 7.69305L13.9042 10.8571H5.50021C5.21003 10.8571 4.95892 10.9631 4.74686 11.1752C4.53481 11.3872 4.42878 11.6384 4.42878 11.9285V14.0714C4.42878 14.3616 4.53481 14.6127 4.74686 14.8247C4.95892 15.0368 5.21003 15.1428 5.50021 15.1428H13.9042L10.7402 18.3069C10.5281 18.5189 10.4221 18.7701 10.4221 19.0602C10.4221 19.3504 10.5281 19.6015 10.7402 19.8136L12.2636 21.337C12.4645 21.5379 12.7156 21.6384 13.017 21.6384C13.3183 21.6384 13.5694 21.5379 13.7703 21.337L19.8306 15.2768L21.354 13.7533C21.5549 13.5524 21.6553 13.3013 21.6553 13ZM25.8574 13C25.8574 15.3326 25.2826 17.4838 24.133 19.4536C22.9835 21.4235 21.4238 22.9832 19.4539 24.1328C17.484 25.2823 15.3328 25.8571 13.0002 25.8571C10.6676 25.8571 8.51639 25.2823 6.54653 24.1328C4.57666 22.9832 3.01695 21.4235 1.8674 19.4536C0.717843 17.4838 0.143066 15.3326 0.143066 13C0.143066 10.6674 0.717843 8.51615 1.8674 6.54628C3.01695 4.57642 4.57666 3.01671 6.54653 1.86715C8.51639 0.717599 10.6676 0.142822 13.0002 0.142822C15.3328 0.142822 17.484 0.717599 19.4539 1.86715C21.4238 3.01671 22.9835 4.57642 24.133 6.54628C25.2826 8.51615 25.8574 10.6674 25.8574 13Z" fill="white"/>
</svg>
