<svg width="26" height="26" viewBox="0 0 26 26" fill="none" xmlns="http://www.w3.org/2000/svg">
<g clip-path="url(#clip0_0_118)">
<path d="M13.0033 0H12.9968C5.82889 0 1.70575e-05 5.8305 1.70575e-05 13C-0.00443398 15.7381 0.862322 18.4067 2.47489 20.6196L0.854767 25.4491L5.85164 23.8518C7.97124 25.258 10.4596 26.0055 13.0033 26C20.1711 26 26 20.1679 26 13C26 5.83213 20.1711 0 13.0033 0ZM20.5676 18.3576C20.254 19.2432 19.0093 19.9777 18.0164 20.1922C17.3371 20.3369 16.4499 20.4523 13.4631 19.214C9.64277 17.6313 7.18252 13.7491 6.99077 13.4972C6.80714 13.2454 5.44702 11.4416 5.44702 9.57613C5.44702 7.71063 6.39439 6.80225 6.77627 6.41225C7.08989 6.09212 7.60827 5.94587 8.10552 5.94587C8.26639 5.94587 8.41102 5.954 8.54102 5.9605C8.92289 5.97675 9.11464 5.9995 9.36652 6.60238C9.68014 7.358 10.4439 9.2235 10.5349 9.41525C10.6275 9.607 10.7201 9.867 10.5901 10.1189C10.4683 10.3789 10.361 10.4942 10.1693 10.7153C9.97752 10.9362 9.79552 11.1053 9.60377 11.3425C9.42827 11.5489 9.23002 11.7699 9.45102 12.1518C9.67202 12.5255 10.4358 13.7719 11.5603 14.7729C13.0114 16.0647 14.1879 16.4775 14.6088 16.653C14.9224 16.783 15.2961 16.7521 15.5253 16.5084C15.8161 16.1947 16.1753 15.6748 16.5409 15.1629C16.8009 14.7956 17.1291 14.7501 17.4736 14.8801C17.8246 15.002 19.682 15.9201 20.0639 16.1102C20.4458 16.302 20.6976 16.393 20.7903 16.5539C20.8813 16.7148 20.8813 17.4704 20.5676 18.3576Z" fill="white"/>
</g>
<defs>
<clipPath id="clip0_0_118">
<rect width="26" height="26" fill="white"/>
</clipPath>
</defs>
</svg>
