<svg width="25" height="25" viewBox="0 0 25 25" fill="none" xmlns="http://www.w3.org/2000/svg">
<path d="M20.3078 16.3818C19.5949 15.6494 17.5685 14.2773 16.2404 14.2773C15.9328 14.2773 15.6642 14.3457 15.4445 14.4873C14.7951 14.9023 14.2775 15.2246 14.0285 15.2246C13.8917 15.2246 13.7453 15.1025 13.423 14.8242L13.3693 14.7754C12.4757 13.999 12.2853 13.7988 11.9386 13.4375L11.8507 13.3447C11.7872 13.2812 11.7335 13.2227 11.6798 13.1689C11.3771 12.8564 11.1574 12.6318 10.381 11.7529L10.3468 11.7139C9.97572 11.2939 9.73158 11.0205 9.71693 10.8203C9.70228 10.625 9.87318 10.3076 10.3078 9.7168C10.8351 9.00391 10.8546 8.125 10.3712 7.10449C9.98549 6.29883 9.3556 5.52734 8.79896 4.84863L8.75013 4.79004C8.27162 4.2041 7.71498 3.91113 7.09486 3.91113C6.40638 3.91113 5.8351 4.28223 5.53236 4.47754C5.50795 4.49219 5.48353 4.51172 5.45912 4.52637C4.78041 4.95605 4.28724 5.54688 4.1017 6.14746C3.82338 7.05078 3.63783 8.22266 4.97084 10.6592C6.12318 12.7686 7.1681 14.1846 8.82826 15.8887C10.3908 17.4902 11.0841 18.0078 12.6369 19.1309C14.3654 20.3809 16.0255 21.0986 17.1876 21.0986C18.2667 21.0986 19.1163 21.0986 20.3273 19.6387C21.5968 18.1055 21.0695 17.168 20.3078 16.3818Z" fill="#A5A5A5"/>
</svg>
