<svg width="17" height="17" viewBox="0 0 17 17" fill="none" xmlns="http://www.w3.org/2000/svg">
<path d="M13.9814 8.5C13.9814 8.30916 13.9178 8.15012 13.7905 8.02288L12.8257 7.05804L8.98751 3.21987C8.86028 3.09264 8.70124 3.02902 8.51039 3.02902C8.31955 3.02902 8.16051 3.09264 8.03327 3.21987L7.06843 4.18471C6.9412 4.31195 6.87758 4.47099 6.87758 4.66183C6.87758 4.85268 6.9412 5.01172 7.06843 5.13896L9.07234 7.14286H3.74979C3.56601 7.14286 3.40697 7.21001 3.27267 7.34431C3.13837 7.47861 3.07122 7.63765 3.07122 7.82143V9.17858C3.07122 9.36236 3.13837 9.5214 3.27267 9.6557C3.40697 9.79 3.56601 9.85715 3.74979 9.85715H9.07234L7.06843 11.8611C6.93413 11.9954 6.86698 12.1544 6.86698 12.3382C6.86698 12.522 6.93413 12.681 7.06843 12.8153L8.03327 13.7801C8.16051 13.9074 8.31955 13.971 8.51039 13.971C8.70124 13.971 8.86028 13.9074 8.98751 13.7801L12.8257 9.94197L13.7905 8.97713C13.9178 8.84989 13.9814 8.69085 13.9814 8.5ZM16.6426 8.5C16.6426 9.97731 16.2786 11.3398 15.5506 12.5873C14.8225 13.8349 13.8347 14.8227 12.5871 15.5508C11.3395 16.2788 9.9771 16.6429 8.49979 16.6429C7.02248 16.6429 5.66004 16.2788 4.41246 15.5508C3.16488 14.8227 2.17706 13.8349 1.44901 12.5873C0.720959 11.3398 0.356934 9.97731 0.356934 8.5C0.356934 7.0227 0.720959 5.66025 1.44901 4.41267C2.17706 3.16509 3.16488 2.17727 4.41246 1.44922C5.66004 0.721173 7.02248 0.357147 8.49979 0.357147C9.9771 0.357147 11.3395 0.721173 12.5871 1.44922C13.8347 2.17727 14.8225 3.16509 15.5506 4.41267C16.2786 5.66025 16.6426 7.0227 16.6426 8.5Z" fill="white"/>
</svg>
